<svg version="1.1" xmlns="http://www.w3.org/2000/svg" xmlns:xlink="http://www.w3.org/1999/xlink" width="347.27792"
  height="206.25863" viewBox="0,0,347.27792,206.25863">
  <g transform="translate(-94.50274,-84.17716)">
    <g data-paper-data="{&quot;isPaintingLayer&quot;:true}" fill="#ff2727" fill-rule="nonzero" stroke="none"
      stroke-width="1" stroke-linecap="butt" stroke-linejoin="miter" stroke-miterlimit="10" stroke-dasharray=""
      stroke-dashoffset="0" style="mix-blend-mode: normal">
      <path
        d="M387.93043,201.41302c-11.353,14.43394 -6.94238,35.52025 0.27177,52.40767c2.41539,5.65412 5.1473,11.63615 4.12817,17.69952c-1.24623,7.41459 -7.86372,12.8363 -14.81157,15.70972c-12.66562,5.2381 -27.82203,3.98975 -39.45991,-3.25009c-10.05729,-6.25657 -17.25982,-16.43118 -27.48874,-22.403c-17.1181,-9.99385 -38.90686,-6.21984 -57.49489,0.66431c-13.1506,4.87037 -27.52795,11.20419 -40.59517,6.11434c-9.19477,-3.58148 -15.55041,-12.29856 -19.0134,-21.53861c-1.67198,-4.46123 -2.88551,-9.29006 -6.07831,-12.82617c-1.89814,-2.10225 -4.37531,-3.59441 -6.9129,-4.8526c-23.17186,-11.48913 -47.93339,42.71151 -80.95065,4.44306c-15.20026,-8.60612 11.10461,-33.84917 6.79597,-50.77693c-4.30864,-16.92776 -12.81579,-15.15816 -11.72185,-32.59137c0.7774,-12.38904 2.17225,-28.61857 10.08833,-38.18036c8.37412,-10.11507 7.73086,-24.38678 20.72102,-22.46422c12.99016,1.92256 18.75862,-10.74469 29.11732,-2.67388c12.94613,10.08677 24.9524,22.64722 40.84738,26.73316c10.82462,2.78256 22.21148,1.2605 33.37558,0.73341c18.66382,-0.88117 37.33531,1.0784 55.89631,3.22411c17.7689,2.05415 35.66614,4.31495 52.59375,10.09525c11.97919,4.09056 57.61902,-33.52919 68.93043,-28.34176c7.37322,3.38137 27.42544,13.32406 34.40642,17.63085c8.59951,5.30532 -31.5647,50.56919 -33.76806,61.36718c-2.09486,10.26627 -12.85131,15.41552 -18.87698,23.07642z"
        opacity="0.1" />
    </g>
  </g>
</svg>