<svg xmlns="http://www.w3.org/2000/svg" viewBox="62 119.417 997.515 654.963" width="997.515" height="654.963"
  xmlns:xlink="http://www.w3.org/1999/xlink">
  <g opacity="0.3" style="" transform="matrix(0.500901, 0, 0, 0.491839, 62, 375.312469)">
    <rect x="631.64" y="450.62" width="130.73" height="39.52" rx="7.43" fill="#f2f2f2"></rect>
    <rect x="768.45" y="490.14" width="130.73" height="39.52" rx="7.43" fill="#f2f2f2"></rect>
    <rect x="905.27" y="529.67" width="130.73" height="39.52" rx="7.43" fill="#f2f2f2"></rect>
    <rect x="631.64" y="391.33" width="130.73" height="39.52" rx="7.43" fill="#f2f2f2"></rect>
    <rect x="768.45" y="430.86" width="130.73" height="39.52" rx="7.43" fill="#f2f2f2"></rect>
    <rect x="905.27" y="470.38" width="130.73" height="39.52" rx="7.43" fill="#f2f2f2"></rect>
    <rect x="631.64" y="312.29" width="130.73" height="39.52" rx="7.43" fill="#f2f2f2"></rect>
    <rect x="768.45" y="351.81" width="130.73" height="39.52" rx="7.43" fill="#f2f2f2"></rect>
    <rect x="905.27" y="391.33" width="130.73" height="39.52" rx="7.43" fill="#f2f2f2"></rect>
    <rect x="631.64" y="253" width="130.73" height="39.52" rx="7.43" fill="#f2f2f2"></rect>
    <rect x="768.45" y="292.52" width="130.73" height="39.52" rx="7.43" fill="#f2f2f2"></rect>
    <rect x="905.27" y="332.05" width="130.73" height="39.52" rx="7.43" fill="#f2f2f2"></rect>
    <rect x="631.64" y="450.62" width="130.73" height="39.52" rx="7.43" fill="#6c63ff" opacity="0.1"></rect>
    <rect x="768.45" y="490.14" width="130.73" height="39.52" rx="7.43" fill="#6c63ff" opacity="0.1"></rect>
    <rect x="905.27" y="529.67" width="130.73" height="39.52" rx="7.43" fill="#6c63ff" opacity="0.1"></rect>
    <rect x="631.64" y="391.33" width="130.73" height="39.52" rx="7.43" fill="#6c63ff" opacity="0.1"></rect>
    <rect x="768.45" y="430.86" width="130.73" height="39.52" rx="7.43" fill="#6c63ff" opacity="0.1"></rect>
    <rect x="905.27" y="470.38" width="130.73" height="39.52" rx="7.43" fill="#6c63ff" opacity="0.1"></rect>
    <rect x="631.64" y="312.29" width="130.73" height="39.52" rx="7.43" fill="#6c63ff" opacity="0.1"></rect>
    <rect x="768.45" y="351.81" width="130.73" height="39.52" rx="7.43" fill="#6c63ff" opacity="0.1"></rect>
    <rect x="905.27" y="391.33" width="130.73" height="39.52" rx="7.43" fill="#6c63ff" opacity="0.1"></rect>
    <rect x="631.64" y="253" width="130.73" height="39.52" rx="7.43" fill="#6c63ff" opacity="0.1"></rect>
    <rect x="768.45" y="292.52" width="130.73" height="39.52" rx="7.43" fill="#6c63ff" opacity="0.1"></rect>
    <rect x="905.27" y="332.05" width="130.73" height="39.52" rx="7.43" fill="#6c63ff" opacity="0.1"></rect>
  </g>
  <g opacity="0.3" style="" transform="matrix(0.500901, 0, 0, 0.491839, 62, 375.312469)">
    <rect x="119.64" y="197.62" width="130.73" height="39.52" rx="7.43" fill="#f2f2f2"></rect>
    <rect x="256.45" y="237.14" width="130.73" height="39.52" rx="7.43" fill="#f2f2f2"></rect>
    <rect x="393.27" y="276.67" width="130.73" height="39.52" rx="7.43" fill="#f2f2f2"></rect>
    <rect x="119.64" y="138.33" width="130.73" height="39.52" rx="7.43" fill="#f2f2f2"></rect>
    <rect x="256.45" y="177.86" width="130.73" height="39.52" rx="7.43" fill="#f2f2f2"></rect>
    <rect x="393.27" y="217.38" width="130.73" height="39.52" rx="7.43" fill="#f2f2f2"></rect>
    <rect x="119.64" y="59.29" width="130.73" height="39.52" rx="7.43" fill="#f2f2f2"></rect>
    <rect x="256.45" y="98.81" width="130.73" height="39.52" rx="7.43" fill="#f2f2f2"></rect>
    <rect x="393.27" y="138.33" width="130.73" height="39.52" rx="7.43" fill="#f2f2f2"></rect>
    <rect x="119.64" width="130.73" height="39.52" rx="7.43" fill="#f2f2f2"></rect>
    <rect x="256.45" y="39.52" width="130.73" height="39.52" rx="7.43" fill="#f2f2f2"></rect>
    <rect x="393.27" y="79.05" width="130.73" height="39.52" rx="7.43" fill="#f2f2f2"></rect>
    <rect x="119.64" y="197.62" width="130.73" height="39.52" rx="7.43" fill="#6c63ff" opacity="0.1"></rect>
    <rect x="256.45" y="237.14" width="130.73" height="39.52" rx="7.43" fill="#6c63ff" opacity="0.1"></rect>
    <rect x="393.27" y="276.67" width="130.73" height="39.52" rx="7.43" fill="#6c63ff" opacity="0.1"></rect>
    <rect x="119.64" y="138.33" width="130.73" height="39.52" rx="7.43" fill="#6c63ff" opacity="0.1"></rect>
    <rect x="256.45" y="177.86" width="130.73" height="39.52" rx="7.43" fill="#6c63ff" opacity="0.1"></rect>
    <rect x="393.27" y="217.38" width="130.73" height="39.52" rx="7.43" fill="#6c63ff" opacity="0.1"></rect>
    <rect x="119.64" y="59.29" width="130.73" height="39.52" rx="7.43" fill="#6c63ff" opacity="0.1"></rect>
    <rect x="256.45" y="98.81" width="130.73" height="39.52" rx="7.43" fill="#6c63ff" opacity="0.1"></rect>
    <rect x="393.27" y="138.33" width="130.73" height="39.52" rx="7.43" fill="#6c63ff" opacity="0.1"></rect>
    <rect x="119.64" width="130.73" height="39.52" rx="7.43" fill="#6c63ff" opacity="0.1"></rect>
    <rect x="256.45" y="39.52" width="130.73" height="39.52" rx="7.43" fill="#6c63ff" opacity="0.1"></rect>
    <rect x="393.27" y="79.05" width="130.73" height="39.52" rx="7.43" fill="#6c63ff" opacity="0.1"></rect>
  </g>
  <g opacity="0.1" style="" transform="matrix(0.500901, 0, 0, 0.491839, 62, 375.312469)">
    <path
      d="M348.61,597.26a80.56,80.56,0,0,1-1.74,16.87c-.22,1-.46,2.07-.7,3.07-6.17,24.77-23.6,42.89-44.39,44-.69,0-1.39.06-2.11.06-22,0-40.58-19-46.71-45.08-.18-.7-.33-1.39-.48-2.09a80.56,80.56,0,0,1-1.74-16.87c0-35.39,21.9-64,48.93-64S348.61,561.87,348.61,597.26Z"
      transform="translate(-53 -45.06)" fill="#3f3d56"></path>
    <path
      d="M348.61,597.26a80.56,80.56,0,0,1-1.74,16.87c-.22,1-.46,2.07-.7,3.07-.74,0-1.46,0-2.19-.09a99.36,99.36,0,0,1-16-2.19,98.49,98.49,0,0,1-14.27,3.26,100.29,100.29,0,0,1-11.18,1c-1.26,0-2.52.07-3.78.07a102.12,102.12,0,0,1-13.4-.89,99,99,0,0,1-21-5.22,98.21,98.21,0,0,1-11.35,3c-.18-.7-.33-1.39-.48-2.09a80.56,80.56,0,0,1-1.74-16.87c0-35.39,21.9-64,48.93-64S348.61,561.87,348.61,597.26Z"
      transform="translate(-53 -45.06)" opacity="0.1"></path>
    <path
      d="M453,477.93a99.07,99.07,0,0,0-10.65-44.82L384.8,451l50.51-29.7a99.37,99.37,0,0,0-74.72-42.59,99.69,99.69,0,0,0-7.75-10.27l-82.73,25.73,67.79-39.86a99.47,99.47,0,0,0-156.52,53l70.81,81.51L175.27,433.3a99.48,99.48,0,0,0,89,175.52A100,100,0,0,0,328,610.57a99.52,99.52,0,0,0,121-97.12c0-2.21-.08-4.4-.22-6.58A99.47,99.47,0,0,0,453,477.93Z"
      transform="translate(-53 -45.06)" fill="#6c63ff"></path>
    <path
      d="M451.29,496.38a265,265,0,0,0-92.09-1.17c-34.55,5.72-69.87,18.29-103.67,9.1-19.83-5.4-37-17.88-56.35-24.8A106.81,106.81,0,0,0,141,476,99.52,99.52,0,0,0,264.3,608.82,100,100,0,0,0,328,610.57a99.52,99.52,0,0,0,121-97.12c0-2.21-.08-4.4-.22-6.58A98.49,98.49,0,0,0,451.29,496.38Z"
      transform="translate(-53 -45.06)" opacity="0.1"></path>
  </g>
  <ellipse cx="335.993" cy="719.402" rx="273.993" ry="48.938" fill="#6c63ff" opacity="0.1" style=""></ellipse>
  <path
    d="M 425.994 725.044 C 427.59 718.643 435.25 715.831 440.731 719.634 L 441.122 719.914 C 449.502 726.082 444.528 737.394 441.122 737.65 C 437.715 737.906 431.164 738.181 431.164 738.181 C 431.164 738.181 423.444 735.053 425.994 725.044 Z"
    fill="#192534" style=""></path>
  <path
    d="M 501.601 717.356 L 501.601 719.412 C 501.601 719.412 467.539 721.724 463.902 721.724 L 457.096 721.724 C 457.096 721.724 456.995 721.827 456.831 722.014 C 456.55 722.324 456.073 722.87 455.548 723.549 C 454.475 724.916 453.198 726.824 452.903 728.408 C 452.402 731.237 450.549 732.265 450.549 732.265 L 443.742 730.469 L 437.176 722.757 L 436.218 721.852 L 433.493 719.299 L 431.164 717.11 L 431.279 715.881 L 431.279 715.695 C 431.836 713.053 432.549 710.444 433.413 707.884 C 433.413 707.815 433.458 707.741 433.483 707.672 C 435.371 702.105 438.523 695.342 443.06 693.331 C 443.406 693.177 443.766 693.03 444.152 692.897 L 444.613 692.739 C 453.318 689.877 469.769 691.014 469.769 691.014 C 469.769 691.014 482.331 694.614 483.382 696.159 C 484.434 697.703 496.342 710.421 496.342 710.421 C 497.386 711.195 498.349 712.071 499.216 713.034 C 500.332 714.248 501.37 715.777 501.601 717.356 Z"
    fill="#6c63ff" style=""></path>
  <ellipse cx="430.128" cy="728.669" rx="3.666" ry="5.656" fill="#fff" opacity="0.1" style=""></ellipse>
  <path
    d="M 445.315 695.248 C 445.315 695.248 442.309 699.773 439.133 705.577 C 439.132 705.592 439.132 705.607 439.133 705.622 C 438.287 707.166 437.426 708.794 436.603 710.461 L 436.568 710.54 C 436.568 710.54 434.83 709.187 433.463 707.868 C 433.463 707.8 433.507 707.727 433.534 707.658 C 435.421 702.09 438.573 695.327 443.11 693.316 C 443.456 693.163 443.816 693.015 444.202 692.883 L 445.315 695.248 Z"
    opacity="0.1" style=""></path>
  <path
    d="M 436.414 710.416 C 436.414 710.416 455.002 715.827 458.663 713.5 C 458.663 713.5 459.975 697.048 451.335 696.02 C 451.335 696.02 446.362 694.732 445.324 695.529 C 444.287 696.325 436.414 710.416 436.414 710.416 Z"
    fill="#fff" opacity="0.1" style=""></path>
  <path
    d="M 460.496 698.332 C 460.496 698.332 464.163 711.956 466.782 712.216 C 469.402 712.477 495.836 711.956 494.794 710.155 C 493.752 708.356 482.226 696.793 482.226 696.793 L 460.496 698.332 Z"
    fill="#fff" opacity="0.1" style=""></path>
  <path
    d="M 455.999 722.983 C 455.999 722.983 460.757 716.84 469.137 723.013 C 477.518 729.185 472.538 740.493 469.137 740.748 C 465.737 741.004 459.214 741.265 459.214 741.265 C 459.214 741.265 448.881 737.094 455.999 722.983 Z"
    fill="#192534" style=""></path>
  <path
    d="M 505.423 724.547 C 503.948 720.441 499.215 718.448 495.169 720.229 C 494.233 720.662 493.346 721.192 492.524 721.807 C 485.067 727.297 489.518 737.365 492.524 737.595 C 493.611 737.674 495.059 737.758 496.465 737.831 C 502.652 738.154 507.432 732.576 506.054 726.648 C 505.885 725.936 505.673 725.234 505.423 724.547 Z"
    fill="#192534" style=""></path>
  <ellipse cx="458.142" cy="731.753" rx="3.666" ry="5.656" fill="#fff" opacity="0.1" style=""></ellipse>
  <path
    d="M 468.35 720.957 C 468.35 720.957 467.849 713.5 475.945 716.584 C 484.039 719.668 478.825 723.013 478.825 723.013 L 468.35 720.957 Z"
    fill="#fff" opacity="0.1" style=""></path>
  <path
    d="M 501.601 717.356 L 501.601 718.384 L 500.293 718.876 L 497.623 718.384 C 497.623 718.384 497.052 714.174 499.241 712.974 C 500.332 714.248 501.37 715.777 501.601 717.356 Z"
    fill="#fff" opacity="0.1" style=""></path>
  <path
    d="M 501.601 717.406 L 501.601 719.412 C 501.601 719.412 467.539 721.724 463.902 721.724 L 463.872 721.724 C 461.989 720.74 460.106 720.303 458.523 720.957 C 458.041 721.152 457.588 721.41 457.176 721.724 C 457.056 721.817 456.94 721.915 456.831 722.014 C 456.331 722.463 455.899 722.98 455.548 723.549 C 453.203 727.272 453.705 733.036 453.705 733.036 C 446.898 735.092 439.829 729.697 439.829 729.697 C 438.547 725.92 437.35 723.455 436.254 721.827 C 435.25 720.352 434.34 719.628 433.529 719.275 L 431.164 717.11 L 431.279 715.881 L 450.279 729.446 C 450.279 729.446 452.111 717.878 456.288 718.65 C 460.466 719.422 468.856 719.422 468.856 719.422 L 501.601 717.406 Z"
    opacity="0.1" style=""></path>
  <path
    d="M 430.128 715.812 C 430.128 715.812 428.554 719.668 430.128 719.929 C 431.7 720.189 435.231 716.978 439.815 730.469 C 439.815 730.469 446.883 735.879 453.689 733.809 C 453.689 733.809 452.878 724.041 458.523 721.724 C 464.169 719.407 473.585 730.981 473.585 730.981 L 473.585 733.553 L 495.841 731.237 C 495.841 731.237 502.648 726.096 502.387 718.129 L 468.877 720.184 C 468.877 720.184 460.496 720.184 456.31 719.412 C 452.122 718.64 450.298 730.233 450.298 730.233 L 430.128 715.812 Z"
    fill="#6c63ff" style=""></path>
  <rect x="321.872" y="645.504" width="28.015" height="27.508" rx="27.96" fill="#192534" style=""></rect>
  <path
    d="M 328.545 694.653 C 330.423 693.035 332.331 691.388 333.684 689.326 C 334.925 687.439 335.656 685.278 336.344 683.134 C 338.304 677.006 339.992 670.8 341.407 664.518 C 333.699 663.363 327.944 656.679 320.405 654.716 C 320.224 654.667 314.459 688.682 314.038 691.791 C 313.692 694.359 310.708 706.62 314.108 706.689 C 315.927 706.728 319.724 702.262 321.066 701.086 L 328.545 694.653 Z"
    fill="#3f3d56" style=""></path>
  <path
    d="M 328.545 694.653 C 330.423 693.035 332.331 691.388 333.684 689.326 C 334.925 687.439 335.656 685.278 336.344 683.134 C 338.304 677.006 339.992 670.8 341.407 664.518 C 333.699 663.363 327.944 656.679 320.405 654.716 C 320.224 654.667 314.459 688.682 314.038 691.791 C 313.692 694.359 310.708 706.62 314.108 706.689 C 315.927 706.728 319.724 702.262 321.066 701.086 L 328.545 694.653 Z"
    opacity="0.1" style=""></path>
  <path
    d="M 233.278 608.828 C 232.426 608.955 231.525 609.019 230.823 609.506 C 229.822 610.195 229.566 611.473 229.09 612.585 C 228.465 614.012 227.407 615.214 226.061 616.028 C 224.913 616.717 223.515 617.178 222.829 618.31 C 222.441 619.072 222.257 619.918 222.293 620.769 C 222.203 623.29 222.319 625.813 222.639 628.314 C 222.799 629.568 223.01 630.847 222.744 632.082 C 222.439 633.523 221.517 634.747 220.64 635.943 C 218.537 638.801 216.478 641.938 216.308 645.46 C 216.222 647.231 216.623 649.046 216.167 650.762 C 215.36 653.806 212.075 655.793 211.433 658.872 C 211.243 659.782 211.293 660.746 210.932 661.597 C 210.303 663.073 208.564 663.879 208.118 665.399 C 207.783 666.54 208.272 667.745 208.308 668.93 C 208.358 670.666 207.432 672.269 206.54 673.765 L 201.325 682.47 C 199.633 685.293 197.9 688.245 197.614 691.511 C 197.358 694.407 198.274 697.275 199.283 700.01 C 201.521 706.083 204.847 712.517 210.983 714.853 C 214.595 716.23 218.616 715.935 222.479 715.62 C 227.768 715.192 233.093 714.754 238.197 713.334 C 240.726 712.63 243.206 711.69 245.761 711.189 C 247.463 710.859 249.213 710.697 250.854 710.161 C 254.47 708.884 257.091 705.773 257.688 702.046 C 259.871 702.891 261.895 700.078 261.585 697.796 C 261.274 695.513 259.711 693.582 259.079 691.368 C 258.178 688.314 259.079 684.998 260.581 682.185 C 262.085 679.372 264.159 676.883 265.797 674.144 C 267.622 671.076 268.889 667.721 269.543 664.228 C 270.42 659.512 270.154 654.667 269.885 649.882 L 268.852 631.59 C 268.661 628.241 268.446 624.782 266.944 621.753 C 265.295 618.453 262.29 616.033 259.29 613.834 C 254.862 610.527 250.218 607.507 245.39 604.794 C 242.274 603.083 242.494 603.746 240.015 605.778 C 238.094 607.379 235.765 608.433 233.278 608.828 Z"
    fill="#3f3d56" style=""></path>
  <path
    d="M 275.384 659.718 C 271.843 662.462 268.256 665.246 265.531 668.778 C 262.239 673.072 260.372 678.255 260.181 683.627 C 260.15 686.14 260.329 688.652 260.717 691.137 C 261.253 695.194 262.22 699.715 265.702 701.956 C 267.895 703.369 270.911 703.722 272.409 705.838 C 272.879 706.502 273.155 707.313 273.706 707.899 C 274.708 708.962 276.27 709.192 277.712 709.271 C 279.868 709.39 282.031 709.324 284.174 709.074 C 286.624 708.784 289.113 708.258 291.537 708.71 C 296.257 709.581 299.777 713.953 304.561 714.538 C 308.533 715.03 312.255 712.763 315.581 710.603 C 319.013 708.375 322.594 705.99 324.452 702.385 C 326.259 698.883 326.16 694.761 326.019 690.832 C 325.864 686.469 325.704 682.053 324.516 677.842 C 324.149 676.74 323.865 675.612 323.671 674.469 C 323.314 671.517 324.673 668.615 325.674 665.792 C 327.233 661.498 327.913 656.207 324.817 652.813 C 323.51 651.376 321.691 650.491 319.848 649.862 C 311.709 646.99 302.722 648.081 294.373 649.369 C 286.403 650.555 281.635 654.884 275.384 659.718 Z"
    fill="#3f3d56" style=""></path>
  <path
    d="M 344.408 642.72 C 341.182 647.476 337.947 652.266 335.618 657.476 C 334.028 661.256 332.689 665.133 331.61 669.083 C 328.394 679.997 325.203 691.147 318.781 700.595 C 317.86 701.952 316.838 703.364 316.743 704.992 C 316.653 706.516 317.394 707.943 318.11 709.301 C 319.613 712.173 321.186 715.074 323.33 717.543 C 325.473 720.012 328.038 721.881 330.623 723.79 C 335.988 727.725 341.948 731.895 348.656 731.6 C 350.044 731.537 351.527 731.222 352.453 730.204 C 353.379 729.185 353.509 727.778 353.344 726.47 C 352.843 722.422 349.737 719.24 346.923 716.24 C 344.107 713.24 341.277 709.733 341.503 705.641 C 341.678 702.262 343.931 699.38 346.09 696.744 C 348.56 693.724 351.035 690.709 353.363 687.586 C 363.437 674.085 370.71 658.735 376.475 642.981 C 378.906 636.331 381.114 629.347 380.357 622.323 C 374.847 620.996 363.827 616.559 359.174 621.138 C 356.355 623.912 354.36 628.024 352.161 631.295 L 344.408 642.72 Z"
    fill="#fbbebe" style=""></path>
  <path
    d="M 390.932 596.541 C 387.441 602.52 384.709 608.896 382.797 615.526 C 382.331 617.129 381.915 618.822 382.27 620.444 C 382.656 622.186 383.863 623.617 384.776 625.152 C 385.687 626.686 386.328 628.629 385.503 630.213 C 381.595 630.512 377.722 629.465 373.946 628.427 L 362.105 625.181 C 361.124 624.996 360.203 624.577 359.425 623.961 C 358.052 622.687 358.158 620.548 358.423 618.718 C 360.741 603.737 368.19 589.926 370.98 575.028 C 371.387 572.879 371.813 570.498 373.555 569.127 C 378.564 565.241 389.906 568.531 392.499 574.158 C 395.4 580.404 394.212 590.929 390.932 596.541 Z"
    fill="#6c63ff" style=""></path>
  <path
    d="M 327.543 545.341 C 327.097 545.568 326.596 545.833 326.461 546.296 C 326.399 546.804 326.572 547.314 326.931 547.687 L 331.985 554.671 C 336.97 561.557 341.964 568.487 347.728 574.768 C 352.081 579.506 356.847 583.861 361.974 587.782 C 363.417 588.883 364.955 590.029 365.661 591.687 C 362.511 582.528 363.07 572.53 367.223 563.765 C 368.877 560.322 371.06 557.13 372.779 553.708 C 373.487 552.885 373.052 551.62 371.982 551.386 C 367.605 549.172 362.816 547.835 358.459 545.582 C 355.038 543.812 351.946 541.51 348.876 539.242 C 346.136 537.22 342.49 533.65 339.108 532.799 C 335.457 531.874 335.602 535.145 334.425 537.875 C 333.072 541.065 330.64 543.702 327.543 545.341 Z"
    fill="#fbbebe" style=""></path>
  <path
    d="M 327.543 545.341 C 327.097 545.568 326.596 545.833 326.461 546.296 C 326.399 546.804 326.572 547.314 326.931 547.687 L 331.985 554.671 C 336.97 561.557 341.964 568.487 347.728 574.768 C 352.081 579.506 356.847 583.861 361.974 587.782 C 363.417 588.883 364.955 590.029 365.661 591.687 C 362.511 582.528 363.07 572.53 367.223 563.765 C 368.877 560.322 371.06 557.13 372.779 553.708 C 373.487 552.885 373.052 551.62 371.982 551.386 C 367.605 549.172 362.816 547.835 358.459 545.582 C 355.038 543.812 351.946 541.51 348.876 539.242 C 346.136 537.22 342.49 533.65 339.108 532.799 C 335.457 531.874 335.602 535.145 334.425 537.875 C 333.072 541.065 330.64 543.702 327.543 545.341 Z"
    opacity="0.1" style=""></path>
  <path
    d="M 358.533 573.174 C 356.245 570.637 353.153 568.959 350.444 566.854 C 346.547 563.824 343.466 559.92 340.49 556.01 C 335.031 548.813 329.526 540 332.246 531.417 C 329.356 531.142 326.862 533.473 325.499 535.986 C 324.137 538.499 323.434 541.362 321.738 543.668 C 319.158 547.175 314.77 548.808 310.683 550.412 C 301.697 553.942 293.017 558.177 284.726 563.076 C 281.395 565.044 278.079 567.154 275.534 570.036 C 272.81 573.11 271.101 576.922 268.787 580.291 C 264.28 586.916 257.426 591.889 249.823 594.703 C 247.317 595.636 244.634 596.364 242.394 597.849 C 237.595 601.031 235.597 607.376 236.734 612.955 C 237.871 618.532 241.743 623.282 246.396 626.656 C 251.05 630.031 256.35 632.022 261.719 633.989 C 266.22 635.612 270.75 637.161 275.309 638.633 C 278.662 639.772 282.092 640.687 285.573 641.368 C 291.979 642.523 298.566 642.238 305.042 642.942 C 310.964 643.581 316.778 645.051 322.724 645.46 C 328.669 645.867 334.966 645.09 339.809 641.692 C 343.662 638.992 346.226 634.915 348.595 630.872 C 354.746 620.448 360.239 609.662 365.046 598.578 C 366.462 595.297 379.616 576.715 376.34 574.315 C 359.845 562.231 365.321 581.432 363.748 579.956 C 361.644 577.979 360.437 575.284 358.533 573.174 Z"
    fill="#6c63ff" style=""></path>
  <path
    d="M 338.102 562.058 C 334.56 555.065 332.167 547.579 329.787 540.133 C 329.13 538.067 328.469 535.834 329.175 533.788 C 330.027 531.328 332.752 529.229 331.951 526.764 C 325.58 528.732 318.18 531.815 316.923 538.264 C 316.648 539.671 316.698 541.171 316.032 542.439 C 314.734 544.928 311.429 545.459 308.619 545.882 C 300.444 547.166 292.319 550.402 286.719 556.388 C 285.778 557.371 284.891 558.487 283.713 559.225 C 282.862 559.718 281.957 560.114 281.013 560.406 C 275.534 562.338 269.899 564.749 266.373 569.298 C 264.554 571.64 263.392 574.448 261.364 576.622 C 258.618 579.573 254.576 581.048 251.606 583.798 C 249.603 585.627 248.175 587.949 246.853 590.295 C 241.764 599.325 238.031 609.915 240.732 619.894 C 242.139 625.112 245.239 629.76 246.908 634.905 C 249.207 641.914 248.981 649.906 253.294 655.931 C 256.013 659.718 260.221 662.221 264.53 664.11 C 274.114 668.298 284.645 669.962 295.085 668.94 C 298.955 668.498 302.801 667.861 306.605 667.032 C 315.686 665.193 324.862 663.19 333.112 659.03 C 347.183 651.932 357.307 639.248 366.973 626.952 C 368.812 624.61 370.665 622.249 371.982 619.574 C 373.271 617.021 374.047 614.257 374.912 611.542 C 377.843 602.389 381.966 593.276 381.58 583.695 C 381.596 582.547 381.365 581.409 380.904 580.355 C 380.512 579.568 379.902 578.879 379.557 578.088 C 378.945 576.671 379.22 575.034 378.789 573.552 C 377.594 569.421 372.064 568.634 367.685 568.669 L 366.283 592.912 C 366.067 596.551 365.671 600.59 362.911 603.028 C 360.488 605.076 356.994 605.344 354.276 603.693 C 351.33 601.818 350.915 598.548 350.935 595.415 C 350.965 591.481 350.639 587.875 349.362 584.102 C 346.717 576.278 341.819 569.411 338.102 562.058 Z"
    fill="#192534" style=""></path>
  <path
    d="M 339.844 631.142 C 357.286 639.823 374.828 648.568 390.436 660.126 C 394.042 662.792 397.548 665.615 401.36 667.996 C 412.285 674.812 425.839 678.132 434.269 687.772 C 436.043 689.794 437.546 692.067 439.59 693.817 C 441.362 695.247 443.346 696.408 445.47 697.26 C 452.243 700.195 459.575 701.673 466.978 701.593 C 468.917 701.568 470.911 701.425 472.654 700.609 C 477.347 698.376 478.414 692.396 478.89 687.295 C 479.05 685.568 479.085 683.532 477.702 682.461 C 476.956 681.885 475.969 681.737 475.033 681.595 C 459.799 679.234 445.745 672.034 433.017 663.48 C 420.289 654.928 408.623 644.944 396.071 636.144 C 391.658 633.05 387.14 630.105 382.621 627.158 L 368 617.626 C 360.266 612.585 352.121 607.391 342.885 606.442 C 342.36 606.352 341.821 606.387 341.313 606.545 C 340.501 606.855 340.05 607.681 339.654 608.439 C 336.944 613.623 333.643 618.329 330.323 623.131 C 328.545 625.698 328.344 626.362 331.41 627.734 C 334.169 628.973 337.095 629.775 339.844 631.142 Z"
    fill="#fbbebe" style=""></path>
  <path
    d="M 374.116 774.38 C 374.695 774.38 375.056 773.765 374.767 773.274 C 374.633 773.045 374.385 772.904 374.116 772.904 C 373.537 772.904 373.176 773.52 373.466 774.012 C 373.599 774.239 373.847 774.38 374.116 774.38 Z"
    style=""></path>
  <circle cx="634.05" cy="317.55" r="95.65" fill="#fbbebe" style=""
    transform="matrix(0.500901, 0, 0, 0.491839, 62, 375.312469)"></circle>
  <path
    d="M 341.938 549.841 C 342.79 545.617 347.728 543.482 352.101 543.197 C 361.108 542.721 369.686 547.004 374.602 554.43 C 375.615 551.793 376.298 549.045 376.636 546.246 L 384.65 546.831 C 385.545 546.968 386.46 546.886 387.315 546.595 C 388.347 546.142 388.984 545.12 389.519 544.135 C 393.025 537.708 395.37 529.818 401.951 526.43 L 401.951 535.283 C 405.603 534.586 408.718 532.26 410.382 528.992 C 410.834 531.443 411.552 533.839 412.525 536.139 C 412.686 536.523 412.911 536.945 413.317 537.044 C 413.717 537.072 414.112 536.931 414.399 536.655 C 417.468 534.368 420.244 531.726 422.669 528.785 L 432.186 544.987 C 443.554 516.799 432.059 484.693 405.228 469.692 C 403.027 468.447 400.731 467.373 398.359 466.48 C 392.164 464.187 385.487 463.455 378.88 463.012 C 369.488 462.382 359.576 462.407 351.33 466.829 C 346.897 469.205 343.216 472.706 339.66 476.227 C 334.85 480.98 330.043 486 327.483 492.213 C 325.715 496.501 325.108 501.149 324.572 505.743 C 324.246 508.522 323.947 511.394 324.753 514.075 C 325.313 515.929 326.37 517.597 327.082 519.402 C 328.264 522.401 328.449 525.677 328.905 528.865 C 329.916 535.908 332.259 542.703 335.812 548.902 C 336.564 550.215 337.526 551.612 339.023 551.946 C 340.521 552.281 342.319 550.658 341.528 549.379"
    fill="#192534" style=""></path>
  <path
    d="M 341.938 549.841 C 342.79 545.617 347.728 543.482 352.101 543.197 C 361.108 542.721 369.686 547.004 374.602 554.43 C 375.615 551.793 376.298 549.045 376.636 546.246 L 384.65 546.831 C 385.545 546.968 386.46 546.886 387.315 546.595 C 388.347 546.142 388.984 545.12 389.519 544.135 C 393.025 537.708 395.37 529.818 401.951 526.43 L 401.951 535.283 C 405.603 534.586 408.718 532.26 410.382 528.992 C 410.834 531.443 411.552 533.839 412.525 536.139 C 412.686 536.523 412.911 536.945 413.317 537.044 C 413.717 537.072 414.112 536.931 414.399 536.655 C 417.468 534.368 420.244 531.726 422.669 528.785 L 432.186 544.987 C 443.554 516.799 432.059 484.693 405.228 469.692 C 403.027 468.447 400.731 467.373 398.359 466.48 C 392.164 464.187 385.487 463.455 378.88 463.012 C 369.488 462.382 359.576 462.407 351.33 466.829 C 346.897 469.205 343.216 472.706 339.66 476.227 C 334.85 480.98 330.043 486 327.483 492.213 C 325.715 496.501 325.108 501.149 324.572 505.743 C 324.246 508.522 323.947 511.394 324.753 514.075 C 325.313 515.929 326.37 517.597 327.082 519.402 C 328.264 522.401 328.449 525.677 328.905 528.865 C 329.916 535.908 332.259 542.703 335.812 548.902 C 336.564 550.215 337.526 551.612 339.023 551.946 C 340.521 552.281 342.319 550.658 341.528 549.379"
    fill="none" stroke="#000" stroke-miterlimit="10" style=""></path>
  <path
    d="M 286.951 594.992 C 288.883 600.21 293.741 603.752 298.349 606.978 L 310.372 615.398 C 313.568 617.636 316.848 619.958 318.927 623.224 C 315.887 624.354 314.5 628.191 315.496 631.231 C 316.493 634.271 319.353 636.45 322.468 637.433 C 325.584 638.416 328.89 638.382 332.141 638.2 C 335.873 637.998 339.779 637.556 342.861 635.475 L 336.093 631.383 C 334.309 630.296 332.26 628.565 332.913 626.612 L 340.05 626.544 C 340.801 626.544 341.618 626.509 342.214 626.052 C 342.809 625.594 343.015 624.891 343.266 624.222 C 345.43 618.704 350.602 614.875 356.6 614.346 C 358.362 614.218 360.393 614.292 361.609 613.003 C 362.4 612.148 362.57 610.917 362.711 609.772 C 362.977 607.588 363.237 605.345 362.796 603.206 C 362.356 601.066 361.082 598.942 359.039 598.041 C 357.536 597.372 355.798 597.436 354.155 597.22 C 346.597 596.237 341.358 589.508 337.3 583.168 C 333.242 576.829 328.89 569.815 321.656 567.454 C 319.398 566.791 317.056 566.438 314.699 566.406 C 309.484 566.195 304.116 566.613 299.367 568.738 C 290.515 572.698 283.504 585.706 286.951 594.992 Z"
    fill="#6c63ff" style=""></path>
  <path
    d="M 432.23 536.232 L 422.714 520.031 C 420.291 522.973 417.515 525.615 414.444 527.901 C 414.159 528.179 413.764 528.324 413.362 528.293 C 412.957 528.195 412.731 527.772 412.571 527.389 C 411.596 525.088 410.878 522.69 410.426 520.237 C 408.766 523.508 405.649 525.835 401.997 526.533 L 401.997 517.68 C 395.414 521.079 393.091 528.968 389.564 535.386 C 389.028 536.37 388.392 537.378 387.36 537.846 C 386.505 538.137 385.59 538.217 384.695 538.082 L 376.681 537.496 C 376.343 540.295 375.66 543.043 374.648 545.68 C 369.733 538.255 361.153 533.971 352.147 534.446 C 347.773 534.732 342.835 536.866 341.983 541.091 L 341.557 540.63 C 342.363 541.913 340.556 543.536 339.053 543.202 C 337.551 542.867 336.594 541.47 335.843 540.157 C 332.298 533.951 329.966 527.15 328.965 520.105 C 328.51 516.918 328.324 513.642 327.142 510.642 C 326.431 508.837 325.374 507.169 324.812 505.315 C 324.812 505.251 324.777 505.192 324.763 505.129 C 324.718 505.497 324.673 505.867 324.632 506.235 C 324.307 509.019 324.007 511.886 324.812 514.596 C 325.374 516.451 326.431 518.118 327.142 519.918 C 328.324 522.923 328.51 526.193 328.965 529.387 C 329.965 536.431 332.297 543.23 335.843 549.433 C 336.594 550.746 337.556 552.148 339.053 552.483 C 340.551 552.817 342.349 551.194 341.557 549.91 L 341.983 550.368 C 342.835 546.148 347.773 544.008 352.147 543.728 C 361.153 543.248 369.734 547.53 374.648 554.956 C 375.66 552.321 376.343 549.575 376.681 546.778 L 384.695 547.357 C 385.59 547.495 386.506 547.414 387.36 547.122 C 388.392 546.669 389.028 545.646 389.564 544.662 C 393.071 538.229 395.414 530.345 401.997 526.956 L 401.997 535.809 C 405.649 535.111 408.766 532.784 410.426 529.513 C 410.879 531.965 411.598 534.363 412.571 536.665 C 412.731 537.044 412.957 537.471 413.362 537.566 C 413.763 537.598 414.159 537.456 414.444 537.177 C 417.515 534.891 420.291 532.249 422.714 529.307 L 432.23 545.509 C 435.663 536.911 437.075 527.664 436.364 518.457 C 435.902 524.553 434.51 530.545 432.23 536.232 Z"
    opacity="0.1" style=""></path>
  <path
    d="M 1059.419 220.769 C 1056.153 163.019 991.594 130.461 943.214 162.164 C 927.963 172.158 916.867 187.357 911.993 204.927 C 911.082 204.895 910.173 204.858 909.255 204.858 C 875.912 204.864 846.559 226.837 837.159 258.827 C 815.036 249.106 789.139 255.548 774.147 274.501 L 1008.535 274.501 C 1037.331 274.501 1060.646 250.65 1059.472 221.878 C 1059.457 221.509 1059.439 221.139 1059.419 220.769 Z"
    fill="#e6e6e6"></path>
  <path
    d="M 89.546 248.332 C 92.812 190.582 157.37 158.023 205.75 189.727 C 221.001 199.721 232.098 214.92 236.972 232.49 C 237.882 232.457 238.791 232.421 239.71 232.421 C 273.052 232.427 302.405 254.4 311.805 286.39 C 333.929 276.669 359.826 283.111 374.817 302.064 L 140.429 302.064 C 111.633 302.064 88.318 278.213 89.492 249.44 C 89.508 249.072 89.525 248.702 89.546 248.332 Z"
    fill="#e6e6e6"></path>
  <polygon
    points="933.039 500.716 813.82 500.716 754.21 605.388 813.82 710.06 933.039 710.06 992.649 605.388 933.039 500.716"
    fill="#6c63ff" style=""></polygon>
  <path
    d="M 823.393 692.546 L 922.654 692.546 L 972.284 605.398 L 922.654 518.249 L 823.393 518.249 L 773.762 605.398 L 823.393 692.546 Z"
    fill="#fff" style=""></path>
  <rect x="833.809" y="518.11" width="1.291" height="54.044" fill="#3f3d56" style=""></rect>
  <circle cx="749.478" cy="315.588" r="5.693" fill="#6c63ff" style=""
    transform="matrix(0.645735, 0, 0, 0.654645, 350.489929, 368.661743)"></circle>
  <rect x="861.382" y="518.11" width="1.291" height="54.044" fill="#3f3d56" style=""></rect>
  <circle cx="792.179" cy="315.588" r="5.693" fill="#3f3d56" style=""
    transform="matrix(0.645735, 0, 0, 0.654645, 350.489929, 368.661743)"></circle>
  <rect x="909.789" y="518.11" width="1.291" height="54.044" fill="#3f3d56" style=""></rect>
  <circle cx="867.143" cy="315.588" r="5.693" fill="#3f3d56" style=""
    transform="matrix(0.645735, 0, 0, 0.654645, 350.489929, 368.661743)"></circle>
  <circle cx="835.829" cy="397.194" r="5.693" fill="#3f3d56" style=""
    transform="matrix(0.645735, 0, 0, 0.654645, 350.489929, 368.661743)"></circle>
  <circle cx="720.062" cy="345.004" r="5.693" fill="#3f3d56" style=""
    transform="matrix(0.645735, 0, 0, 0.654645, 350.489929, 368.661743)"></circle>
  <polygon
    points="890.86 625.576 889.568 625.576 889.568 560.453 862.028 560.453 862.028 559.144 890.86 559.144 890.86 625.576"
    fill="#3f3d56" style=""></polygon>
  <circle cx="762.763" cy="433.252" r="5.693" fill="#6c63ff" style=""
    transform="matrix(0.645735, 0, 0, 0.654645, 350.489929, 368.661743)"></circle>
  <polygon
    points="843.679 649.183 842.387 649.183 842.387 584.059 814.846 584.059 814.846 582.749 843.679 582.749 843.679 649.183"
    fill="#3f3d56" style=""></polygon>
  <circle cx="894.661" cy="388.654" r="5.693" fill="#6c63ff" style=""
    transform="matrix(0.645735, 0, 0, 0.654645, 350.489929, 368.661743)"></circle>
  <polygon
    points="928.85 619.986 927.559 619.986 927.559 554.863 909.822 554.863 909.822 553.553 928.85 553.553 928.85 619.986"
    fill="#3f3d56" style=""></polygon>
  <polygon
    points="816.105 590.789 814.813 590.789 814.813 558.41 834.454 558.41 834.454 559.719 816.105 559.719 816.105 590.789"
    fill="#3f3d56" style=""></polygon>
  <circle cx="793.653" cy="455.552" r="5.693" fill="#3f3d56" style=""
    transform="matrix(0.645735, 0, 0, 0.654645, 350.489929, 368.661743)"></circle>
  <polygon
    points="862.98 663.159 861.688 663.159 861.688 632.089 843.339 632.089 843.339 630.78 862.98 630.78 862.98 663.159"
    fill="#3f3d56" style=""></polygon>
  <circle cx="865.245" cy="413.325" r="5.693" fill="#3f3d56" style=""
    transform="matrix(0.645735, 0, 0, 0.654645, 350.489929, 368.661743)"></circle>
  <polygon
    points="909.855 635.516 908.563 635.516 908.563 603.136 928.204 603.136 928.204 604.446 909.855 604.446 909.855 635.516"
    fill="#3f3d56" style=""></polygon>
  <rect x="509.675" y="120.278" width="139.955" height="60.756" rx="12.97" fill="#6c63ff" style=""></rect>
  <rect x="520.831" y="171.71" width="117.643" height="1.14" opacity="0.1" style=""></rect>
  <rect x="520.831" y="129.771" width="117.643" height="41.77" opacity="0.3" style=""></rect>
  <circle cx="535.848" cy="165.967" r="17.81" opacity="0.1" style=""
    transform="matrix(0.911091, 0, 0, 0.852835, 60.007629, 9.985419)"></circle>
  <circle cx="604.862" cy="165.967" r="17.81" opacity="0.1" style=""
    transform="matrix(0.911091, 0, 0, 0.852835, 60.007629, 9.985419)"></circle>
  <rect x="567.481" y="181.033" width="24.339" height="13.294" fill="#6c63ff" style=""></rect>
  <rect x="528.944" y="190.529" width="101.416" height="75.945" fill="#6c63ff" style=""></rect>
  <rect x="526.917" y="281.663" width="105.474" height="9.493" fill="#6c63ff" style=""></rect>
  <polygon
    points="544.158 313.94 544.158 325.33 544.158 342.418 544.158 351.912 544.158 357.608 562.412 357.608 562.412 351.912 562.412 342.418 562.412 325.33 562.412 313.94 562.412 300.648 544.158 300.648 544.158 313.94"
    fill="#6c63ff" style=""></polygon>
  <polygon
    points="598.922 300.648 598.922 313.94 598.922 325.33 598.922 342.418 598.922 351.912 598.922 357.608 617.176 357.608 617.176 351.912 617.176 342.418 617.176 325.33 617.176 313.94 617.176 300.648 598.922 300.648"
    fill="#6c63ff" style=""></polygon>
  <path
    d="M 515.131 207.616 L 515.131 225.178 C 510.12 225.996 505.452 228.103 501.645 231.262 C 498.117 234.322 495.373 238.087 493.618 242.279 C 491.382 247.662 490.048 253.336 489.665 259.101 C 489.091 266.637 489.467 274.21 490.788 281.665 L 470.504 281.665 C 469.659 272.594 469.837 263.466 471.036 254.433 C 471.991 246.964 474.189 239.681 477.545 232.849 C 483.421 221.311 491.78 215.052 499.122 211.653 C 504.098 209.271 509.551 207.896 515.131 207.616 Z"
    fill="#6c63ff" style=""></path>
  <rect x="544.157" y="300.648" width="18.255" height="13.291" opacity="0.3" style=""></rect>
  <rect x="544.157" y="325.33" width="18.255" height="17.087" opacity="0.3" style=""></rect>
  <rect x="544.157" y="351.912" width="18.255" height="5.696" opacity="0.3" style=""></rect>
  <rect x="598.921" y="300.648" width="18.255" height="13.291" opacity="0.3" style=""></rect>
  <rect x="598.921" y="325.33" width="18.255" height="17.087" opacity="0.3" style=""></rect>
  <rect x="598.921" y="351.912" width="18.255" height="5.696" opacity="0.3" style=""></rect>
  <path
    d="M 515.131 207.616 L 515.131 225.178 C 510.12 225.996 505.452 228.103 501.645 231.262 L 499.122 211.653 C 504.098 209.271 509.551 207.896 515.131 207.616 Z"
    opacity="0.3" style=""></path>
  <path
    d="M 493.618 242.279 C 491.382 247.662 490.048 253.336 489.665 259.101 L 471.036 254.433 C 471.991 246.964 474.189 239.681 477.545 232.849 L 493.618 242.279 Z"
    opacity="0.3" style=""></path>
  <path
    d="M 644.174 207.616 L 644.174 225.178 C 649.185 225.996 653.854 228.103 657.659 231.262 C 661.189 234.322 663.932 238.087 665.688 242.279 C 667.924 247.662 669.256 253.336 669.64 259.101 C 670.215 266.637 669.836 274.21 668.517 281.665 L 688.8 281.665 C 689.646 272.594 689.469 263.466 688.271 254.433 C 687.312 246.964 685.117 239.681 681.761 232.849 C 675.884 221.311 667.526 215.052 660.184 211.653 C 655.208 209.271 649.753 207.896 644.174 207.616 Z"
    fill="#6c63ff" style=""></path>
  <path
    d="M 644.174 207.616 L 644.174 225.178 C 649.185 225.996 653.854 228.103 657.659 231.262 L 660.184 211.653 C 655.208 209.271 649.753 207.896 644.174 207.616 Z"
    opacity="0.3" style=""></path>
  <path
    d="M 665.688 242.279 C 667.924 247.662 669.256 253.336 669.64 259.101 L 688.271 254.433 C 687.312 246.964 685.117 239.681 681.761 232.849 L 665.688 242.279 Z"
    opacity="0.3" style=""></path>
  <rect x="567.481" y="181.033" width="24.339" height="1.573" opacity="0.1" style=""></rect>
  <path
    d="M 632.162 204.059 L 632.162 235.856 C 630.95 234.63 630.276 233.02 630.277 231.348 L 630.277 208.562 C 630.276 206.893 630.95 205.284 632.162 204.059 Z"
    opacity="0.1" style=""></path>
  <path
    d="M 529.305 206.156 L 529.305 229.959 C 529.184 231.463 528.517 232.884 527.414 233.986 L 527.414 202.127 C 528.516 203.23 529.184 204.651 529.305 206.156 Z"
    opacity="0.1" style=""></path>
  <rect x="534.017" y="266.475" width="91.274" height="1.125" opacity="0.1" style=""></rect>
  <rect x="531.985" y="291.157" width="44.621" height="0.872" opacity="0.1" style=""></rect>
  <rect x="580.669" y="291.157" width="44.621" height="0.872" opacity="0.1" style=""></rect>
  <rect x="536.965" y="64.053" width="6.985" height="56.226" fill="#6c63ff" style=""></rect>
  <rect x="617.053" y="64.053" width="6.985" height="56.226" fill="#6c63ff" style=""></rect>
  <circle cx="527.078" cy="63.908" r="8.688" opacity="0.1" style=""
    transform="matrix(0.911091, 0, 0, 0.852835, 60.007629, 9.985419)"></circle>
  <circle cx="527.078" cy="63.397" r="8.688" fill="#6c63ff" style=""
    transform="matrix(0.911091, 0, 0, 0.852835, 60.007629, 9.985419)"></circle>
  <circle cx="615.494" cy="63.908" r="8.688" opacity="0.1" style=""
    transform="matrix(0.911091, 0, 0, 0.852835, 60.007629, 9.985419)"></circle>
  <circle cx="615.494" cy="63.397" r="8.688" fill="#6c63ff" style=""
    transform="matrix(0.911091, 0, 0, 0.852835, 60.007629, 9.985419)"></circle>
  <ellipse cx="572.811" cy="358.662" rx="273.993" ry="48.938" fill="#6c63ff" opacity="0.1" style=""></ellipse>
</svg>