<svg version="1.1"
      xmlns="http://www.w3.org/2000/svg"
      xmlns:xlink="http://www.w3.org/1999/xlink"  id="snapshot-77816" width="250" height="250" viewBox="0 0 250 250"><defs>
<!-- image 85558 -->
<g id="transformed-85558" data-image="85558" transform="translate(-25, -25) rotate(0, 25, 25)"><g><svg version="1.1" width="50px" height="50px" viewBox="0 0 50 50"><g id="original-85558"><svg xmlns="http://www.w3.org/2000/svg" viewBox="0 0 66 66" xmlns:xlink="http://www.w3.org/1999/xlink" version="1.1" preserveAspectRatio="xMidYMid meet">
  <path fill-rule="evenodd" d="M8.251 35.121l22.628 22.628-4.95 7.778L.473 40.071z" fill="rgba(40, 56, 203, 0.3)" stroke="none"/>
  <path fill-rule="evenodd" d="M11.08 54.92a5.881 5.881 0 0 1 .174 8.311c-2.577 2.577-9.367 2.3-10.074 1.589-.707-.711-.988-7.5 1.589-10.074a5.881 5.881 0 0 1 8.311.174z" fill="rgba(255, 84, 0, 0.3)" stroke="none"/>
  <path fill-rule="evenodd" d="M.473 27.343l1.414-1.414s10.629-2.055 20.551-11.977C42.065-5.675 64.82 1.18 64.82 1.18s6.855 22.755-12.772 42.382c-9.922 9.922-11.977 20.551-11.977 20.551l-1.414 1.414L.473 27.343z" fill="rgba(216, 194, 255, 0.3)" stroke="none"/>
  <path fill-rule="evenodd" d="M47.142 18.858a10 10 0 1 1-14.142 0c3.905-3.905 10.237-3.905 14.142 0z" fill="rgba(108, 99, 255, 0.3)" stroke="none"/>
  <path fill-rule="evenodd" d="M45.021 20.979a7 7 0 1 1-9.9 9.899 7 7 0 0 1 9.9-9.899z" fill="rgba(246, 237, 255, 0.6)" stroke="none"/>
</svg>
</g></svg></g></g>
<!-- /image 85558 -->

<!-- image 19430 -->
<g id="transformed-19430" data-image="19430" transform="translate(100, 100) rotate(0, 25, 25)"><g transform="translate(50, 0) scale(-1, 1)"><svg version="1.1" width="50px" height="50px" viewBox="0 0 50 50"><g id="original-19430"><svg xmlns="http://www.w3.org/2000/svg" viewBox="0 0 66 66" xmlns:xlink="http://www.w3.org/1999/xlink" version="1.1" preserveAspectRatio="xMidYMid meet">
  <path fill-rule="evenodd" d="M8.251 35.121l22.628 22.628-4.95 7.778L.473 40.071z" fill="rgba(40, 56, 203, 0.3)" stroke="none"/>
  <path fill-rule="evenodd" d="M11.08 54.92a5.881 5.881 0 0 1 .174 8.311c-2.577 2.577-9.367 2.3-10.074 1.589-.707-.711-.988-7.5 1.589-10.074a5.881 5.881 0 0 1 8.311.174z" fill="rgba(255, 84, 0, 0.3)" stroke="none"/>
  <path fill-rule="evenodd" d="M.473 27.343l1.414-1.414s10.629-2.055 20.551-11.977C42.065-5.675 64.82 1.18 64.82 1.18s6.855 22.755-12.772 42.382c-9.922 9.922-11.977 20.551-11.977 20.551l-1.414 1.414L.473 27.343z" fill="rgba(216, 194, 255, 0.3)" stroke="none"/>
  <path fill-rule="evenodd" d="M47.142 18.858a10 10 0 1 1-14.142 0c3.905-3.905 10.237-3.905 14.142 0z" fill="rgba(108, 99, 255, 0.3)" stroke="none"/>
  <path fill-rule="evenodd" d="M45.021 20.979a7 7 0 1 1-9.9 9.899 7 7 0 0 1 9.9-9.899z" fill="rgba(246, 237, 255, 0.6)" stroke="none"/>
</svg>
</g></svg></g></g>
<!-- /image 19430 -->
</defs><rect x="0" y="0" width="250" height="250" fill="rgba(0, 0, 0, 0)"></rect><use xlink:href="#transformed-85558" transform="translate(-250, -250)"></use><use xlink:href="#transformed-85558" transform="translate(0, -250)"></use><use xlink:href="#transformed-85558" transform="translate(250, -250)"></use><use xlink:href="#transformed-85558" transform="translate(-250, 0)"></use><use xlink:href="#transformed-85558" transform="translate(0, 0)"></use><use xlink:href="#transformed-85558" transform="translate(250, 0)"></use><use xlink:href="#transformed-85558" transform="translate(-250, 250)"></use><use xlink:href="#transformed-85558" transform="translate(0, 250)"></use><use xlink:href="#transformed-85558" transform="translate(250, 250)"></use><use xlink:href="#transformed-19430" transform="translate(-250, -250)"></use><use xlink:href="#transformed-19430" transform="translate(0, -250)"></use><use xlink:href="#transformed-19430" transform="translate(250, -250)"></use><use xlink:href="#transformed-19430" transform="translate(-250, 0)"></use><use xlink:href="#transformed-19430" transform="translate(0, 0)"></use><use xlink:href="#transformed-19430" transform="translate(250, 0)"></use><use xlink:href="#transformed-19430" transform="translate(-250, 250)"></use><use xlink:href="#transformed-19430" transform="translate(0, 250)"></use><use xlink:href="#transformed-19430" transform="translate(250, 250)"></use></svg>
